<svg xmlns="http://www.w3.org/2000/svg" xmlns:svg="http://www.w3.org/2000/svg" xmlns:xlink="http://www.w3.org/1999/xlink" id="svg5" width="760.989" height="616.993" version="1.1" viewBox="0 0 201.345 163.246"><defs id="defs2"><linearGradient id="linearGradient947"><stop style="stop-color:#41b883;stop-opacity:1" id="stop943" offset="0"/><stop style="stop-color:#328e66;stop-opacity:1" id="stop945" offset="1"/></linearGradient><linearGradient id="linearGradient949" x1="-691.973" x2="-522.797" y1="110.411" y2="171.796" gradientUnits="userSpaceOnUse" xlink:href="#linearGradient947"/><filter style="color-interpolation-filters:sRGB" id="filter1324" width="1.238" height="1.274" x="-.119" y="-.137"><feGaussianBlur id="feGaussianBlur1326" stdDeviation="4.418"/></filter></defs><g id="layer1" transform="translate(714.16295,-67.104853)"><path id="path68345" d="m -666.34043,77.104853 c -9.73592,0 -17.57362,7.83821 -17.57362,17.574122 v 4.759915 c -0.77819,11.87733 -0.42489,42.02584 -20.2489,44.68358 h 0.16329 v 9.2108 h -0.16329 c 19.82401,2.65775 19.47071,32.80625 20.2489,44.68358 v 4.76043 c 0,9.73592 7.8377,17.57361 17.57362,17.57361 h 105.69952 c 9.73591,0 17.57412,-7.83769 17.57412,-17.57361 v -4.76043 c 0.7782,-11.87733 0.42488,-42.02583 20.24889,-44.68358 h -0.16329 v -9.2108 h 0.16329 c -19.82401,-2.65774 -19.47069,-32.80625 -20.24889,-44.68358 v -4.759915 c 0,-9.735912 -7.83821,-17.574122 -17.57412,-17.574122 z" style="fill:url(#linearGradient949);fill-opacity:1;stroke:none;stroke-width:.256163;stroke-linecap:round;stroke-linejoin:round"/><path id="path1317" d="m -487.53332,110.09054 44.54505,77.3003 44.41508,-77.3003 h -17.82496 l -26.59012,45.94402 -0.008,-0.0137 26.59793,-45.93034 h -16.02043 l -10.59216,18.44944 -10.51497,-18.44944 h -15.92367 z" transform="matrix(1.0575645,0,0,1.0575645,-144.93311,-4.8709283)" style="mix-blend-mode:normal;fill:#3b3b3b;fill-opacity:1;stroke:none;stroke-width:.264582px;stroke-linecap:butt;stroke-linejoin:miter;stroke-opacity:1;filter:url(#filter1324);opacity:.45334528"/><g id="g81393" transform="matrix(1.0575645,0,0,1.0575645,-187.26647,-4.8709283)"><path style="fill:#fff;fill-opacity:1;stroke:none;stroke-width:.264583px;stroke-linecap:butt;stroke-linejoin:miter;stroke-opacity:1" id="path68380" d="m -447.50416,110.09074 h 18.08363 l 26.46114,45.94406 26.59049,-45.94406 h 17.82491 l -44.4154,77.30008 z"/><path style="fill:#34495e;fill-opacity:1;stroke:none;stroke-width:.15805px;stroke-linecap:butt;stroke-linejoin:miter;stroke-opacity:1" id="path68633" d="m -429.42053,110.09074 h 15.92383 l 10.51506,18.44915 10.59233,-18.44915 h 16.02041 l -26.61274,45.95561 z"/></g></g></svg>